<svg xmlns="http://www.w3.org/2000/svg" id="ranelagh-logo" height="68.3" viewBox="0 0 178 55" width="221" version="1.1"><style>.amber{fill: #ffbb3c;}</style><metadata id="metadata9"/><path id="path3754" d="m12 6.34c4.17-0.78 8.67-2.94 13-2.37 5.4 0.7 5.6 4.2 17 6.9 8.7 1.7 17.1-0.47 26 0 7.13-0.55 15.8 2.9 21 2.7 8.78-0.45 18.8-6.38 31-6.85 9.15-0.36 10.9 2.6 16 2.5 4.9 0.9 28.2-9.76 29.3-9.2 1.4 5.69-20.7 11.1-25.3 12.7 7.9 10.1 5.6 9 9.3 19 0 0 5.16-1.76 9.86-2.35 3.83-1.05 9 1.4 11.1 4.3 3.5 5 8.2 2.8 6.8 6.09-1.68 3.79-6.8-1.91-12-4.78-2.65-2.67-7.34-1.99-10.9 0-1.96 1.32-2.08 1.88-3.14 3.7 8.6 1.2 8.6 3.1 13.4 9.7 2.1 2.8 8.8 3.3 4.6 6.32-10.7-0.34-6.58-6.69-14-10.8-6.24-3.46-16.4-0.84-24-4.58-6.14-3.02-8.11-10.3-16-11.3-4.32-0.54-9.33 2.41-13 4.43-5.12 2.82-14.6 7.95-20 9.62-6.24 1.63-11.4-0.24-13.9 0-3.06 0.58-4.44 4.18-13 5.4-4.8 1.71-16.9-0.01-27.8-1.13-6.6-1.33-8.21 4.71-11.3 0.38-0.04-3.9 6.74-4.72 12-4.24 8.5 0.3 16.5 2.3 25 0-2.81-3.45-3.61-2.8-8-2.77l-20-1.9c-5.22-0.22-10.8 3.53-12 0.91-2.85-3.89 11.9-4.9 16-4.74 6.2 0.2 7.9 3.2 18 0.74-3.82-4.74-4.53-3.71-9-6.69l-7-5.14c-2.04-1.03-6.18-1.83-11.7-3.14-3.09-0.91-9.22 0.92-11.3-3.03-1.54-2.92-0.46-1.54-0.46-1.54l7.46-0.46c-8.81-2.44-14.3-3.21-15-9-0.21-1.83 7.9 1.4 12 0.63z" class="amber"/></svg>